<mxfile host="app.diagrams.net" modified="2024-04-26T11:28:57.279Z" agent="Mozilla/5.0 (Macintosh; Intel Mac OS X 10_15_7) AppleWebKit/537.36 (KHTML, like Gecko) Chrome/124.0.0.0 Safari/537.36" etag="5l1LyYRdVk9JydS08gm1" version="24.2.5" type="device">
  <diagram name="Page-1" id="69_KkcU4N1_JAs6cBmHE">
    <mxGraphModel dx="821" dy="521" grid="1" gridSize="10" guides="1" tooltips="1" connect="1" arrows="1" fold="1" page="1" pageScale="1" pageWidth="827" pageHeight="1169" math="0" shadow="0">
      <root>
        <mxCell id="0" />
        <mxCell id="1" parent="0" />
        <mxCell id="bKpORBnBuVByhevC8wJQ-1" value="Клиент" style="rounded=0;whiteSpace=wrap;html=1;" vertex="1" parent="1">
          <mxGeometry x="200" y="80" width="80" height="30" as="geometry" />
        </mxCell>
        <mxCell id="bKpORBnBuVByhevC8wJQ-2" value="Сервер" style="rounded=0;whiteSpace=wrap;html=1;" vertex="1" parent="1">
          <mxGeometry x="360" y="80" width="80" height="30" as="geometry" />
        </mxCell>
        <mxCell id="bKpORBnBuVByhevC8wJQ-3" value="" style="endArrow=none;html=1;rounded=0;entryX=0.5;entryY=1;entryDx=0;entryDy=0;" edge="1" parent="1" source="bKpORBnBuVByhevC8wJQ-11" target="bKpORBnBuVByhevC8wJQ-1">
          <mxGeometry width="50" height="50" relative="1" as="geometry">
            <mxPoint x="240" y="440" as="sourcePoint" />
            <mxPoint x="390" y="240" as="targetPoint" />
          </mxGeometry>
        </mxCell>
        <mxCell id="bKpORBnBuVByhevC8wJQ-4" value="" style="endArrow=none;html=1;rounded=0;entryX=0.5;entryY=1;entryDx=0;entryDy=0;" edge="1" parent="1" source="bKpORBnBuVByhevC8wJQ-7">
          <mxGeometry width="50" height="50" relative="1" as="geometry">
            <mxPoint x="399.68" y="440" as="sourcePoint" />
            <mxPoint x="399.68" y="110" as="targetPoint" />
          </mxGeometry>
        </mxCell>
        <mxCell id="bKpORBnBuVByhevC8wJQ-9" style="rounded=0;orthogonalLoop=1;jettySize=auto;html=1;exitX=1;exitY=0.5;exitDx=0;exitDy=0;entryX=0;entryY=0.25;entryDx=0;entryDy=0;" edge="1" parent="1" source="bKpORBnBuVByhevC8wJQ-6" target="bKpORBnBuVByhevC8wJQ-7">
          <mxGeometry relative="1" as="geometry" />
        </mxCell>
        <mxCell id="bKpORBnBuVByhevC8wJQ-10" value="GET" style="edgeLabel;html=1;align=center;verticalAlign=middle;resizable=0;points=[];" vertex="1" connectable="0" parent="bKpORBnBuVByhevC8wJQ-9">
          <mxGeometry x="-0.0564" y="3" relative="1" as="geometry">
            <mxPoint x="4" y="-7" as="offset" />
          </mxGeometry>
        </mxCell>
        <mxCell id="bKpORBnBuVByhevC8wJQ-6" value="" style="rounded=0;whiteSpace=wrap;html=1;" vertex="1" parent="1">
          <mxGeometry x="225" y="130" width="30" height="30" as="geometry" />
        </mxCell>
        <mxCell id="bKpORBnBuVByhevC8wJQ-8" value="" style="endArrow=none;html=1;rounded=0;entryX=0.5;entryY=1;entryDx=0;entryDy=0;" edge="1" parent="1" target="bKpORBnBuVByhevC8wJQ-7">
          <mxGeometry width="50" height="50" relative="1" as="geometry">
            <mxPoint x="399" y="480" as="sourcePoint" />
            <mxPoint x="399.68" y="110" as="targetPoint" />
          </mxGeometry>
        </mxCell>
        <mxCell id="bKpORBnBuVByhevC8wJQ-7" value="" style="rounded=0;whiteSpace=wrap;html=1;" vertex="1" parent="1">
          <mxGeometry x="384" y="140" width="30" height="70" as="geometry" />
        </mxCell>
        <mxCell id="bKpORBnBuVByhevC8wJQ-12" value="" style="endArrow=none;html=1;rounded=0;entryX=0.5;entryY=1;entryDx=0;entryDy=0;" edge="1" parent="1" target="bKpORBnBuVByhevC8wJQ-11">
          <mxGeometry width="50" height="50" relative="1" as="geometry">
            <mxPoint x="240" y="480" as="sourcePoint" />
            <mxPoint x="240" y="110" as="targetPoint" />
          </mxGeometry>
        </mxCell>
        <mxCell id="bKpORBnBuVByhevC8wJQ-11" value="" style="rounded=0;whiteSpace=wrap;html=1;" vertex="1" parent="1">
          <mxGeometry x="225" y="200" width="30" height="30" as="geometry" />
        </mxCell>
        <mxCell id="bKpORBnBuVByhevC8wJQ-13" style="rounded=0;orthogonalLoop=1;jettySize=auto;html=1;entryX=1;entryY=0.5;entryDx=0;entryDy=0;exitX=0;exitY=0.75;exitDx=0;exitDy=0;" edge="1" parent="1" source="bKpORBnBuVByhevC8wJQ-7" target="bKpORBnBuVByhevC8wJQ-11">
          <mxGeometry relative="1" as="geometry">
            <mxPoint x="370" y="180" as="sourcePoint" />
            <mxPoint x="394" y="165" as="targetPoint" />
          </mxGeometry>
        </mxCell>
        <mxCell id="bKpORBnBuVByhevC8wJQ-14" value="REDIRECTION" style="edgeLabel;html=1;align=center;verticalAlign=middle;resizable=0;points=[];" vertex="1" connectable="0" parent="bKpORBnBuVByhevC8wJQ-13">
          <mxGeometry x="-0.0564" y="3" relative="1" as="geometry">
            <mxPoint x="-3" y="-16" as="offset" />
          </mxGeometry>
        </mxCell>
        <mxCell id="bKpORBnBuVByhevC8wJQ-16" style="rounded=0;orthogonalLoop=1;jettySize=auto;html=1;exitX=1;exitY=0.5;exitDx=0;exitDy=0;entryX=0;entryY=0.25;entryDx=0;entryDy=0;" edge="1" parent="1" source="bKpORBnBuVByhevC8wJQ-18" target="bKpORBnBuVByhevC8wJQ-19">
          <mxGeometry relative="1" as="geometry" />
        </mxCell>
        <mxCell id="bKpORBnBuVByhevC8wJQ-17" value="POST" style="edgeLabel;html=1;align=center;verticalAlign=middle;resizable=0;points=[];" vertex="1" connectable="0" parent="bKpORBnBuVByhevC8wJQ-16">
          <mxGeometry x="-0.0564" y="3" relative="1" as="geometry">
            <mxPoint x="4" y="-7" as="offset" />
          </mxGeometry>
        </mxCell>
        <mxCell id="bKpORBnBuVByhevC8wJQ-18" value="" style="rounded=0;whiteSpace=wrap;html=1;" vertex="1" parent="1">
          <mxGeometry x="225" y="250" width="30" height="30" as="geometry" />
        </mxCell>
        <mxCell id="bKpORBnBuVByhevC8wJQ-19" value="" style="rounded=0;whiteSpace=wrap;html=1;" vertex="1" parent="1">
          <mxGeometry x="384" y="260" width="30" height="70" as="geometry" />
        </mxCell>
        <mxCell id="bKpORBnBuVByhevC8wJQ-20" value="" style="rounded=0;whiteSpace=wrap;html=1;" vertex="1" parent="1">
          <mxGeometry x="225" y="320" width="30" height="30" as="geometry" />
        </mxCell>
        <mxCell id="bKpORBnBuVByhevC8wJQ-21" style="rounded=0;orthogonalLoop=1;jettySize=auto;html=1;entryX=1;entryY=0.5;entryDx=0;entryDy=0;exitX=0;exitY=0.75;exitDx=0;exitDy=0;" edge="1" parent="1" source="bKpORBnBuVByhevC8wJQ-19" target="bKpORBnBuVByhevC8wJQ-20">
          <mxGeometry relative="1" as="geometry">
            <mxPoint x="370" y="300" as="sourcePoint" />
            <mxPoint x="394" y="285" as="targetPoint" />
          </mxGeometry>
        </mxCell>
        <mxCell id="bKpORBnBuVByhevC8wJQ-22" value="SERVER_ERROR" style="edgeLabel;html=1;align=center;verticalAlign=middle;resizable=0;points=[];" vertex="1" connectable="0" parent="bKpORBnBuVByhevC8wJQ-21">
          <mxGeometry x="-0.0564" y="3" relative="1" as="geometry">
            <mxPoint x="-3" y="-16" as="offset" />
          </mxGeometry>
        </mxCell>
        <mxCell id="bKpORBnBuVByhevC8wJQ-23" style="rounded=0;orthogonalLoop=1;jettySize=auto;html=1;exitX=1;exitY=0.5;exitDx=0;exitDy=0;entryX=0;entryY=0.25;entryDx=0;entryDy=0;" edge="1" parent="1" source="bKpORBnBuVByhevC8wJQ-25" target="bKpORBnBuVByhevC8wJQ-26">
          <mxGeometry relative="1" as="geometry" />
        </mxCell>
        <mxCell id="bKpORBnBuVByhevC8wJQ-24" value="PUT" style="edgeLabel;html=1;align=center;verticalAlign=middle;resizable=0;points=[];" vertex="1" connectable="0" parent="bKpORBnBuVByhevC8wJQ-23">
          <mxGeometry x="-0.0564" y="3" relative="1" as="geometry">
            <mxPoint x="4" y="-7" as="offset" />
          </mxGeometry>
        </mxCell>
        <mxCell id="bKpORBnBuVByhevC8wJQ-25" value="" style="rounded=0;whiteSpace=wrap;html=1;" vertex="1" parent="1">
          <mxGeometry x="225" y="360" width="30" height="30" as="geometry" />
        </mxCell>
        <mxCell id="bKpORBnBuVByhevC8wJQ-26" value="" style="rounded=0;whiteSpace=wrap;html=1;" vertex="1" parent="1">
          <mxGeometry x="384" y="370" width="30" height="70" as="geometry" />
        </mxCell>
        <mxCell id="bKpORBnBuVByhevC8wJQ-27" value="" style="rounded=0;whiteSpace=wrap;html=1;" vertex="1" parent="1">
          <mxGeometry x="225" y="430" width="30" height="30" as="geometry" />
        </mxCell>
        <mxCell id="bKpORBnBuVByhevC8wJQ-28" style="rounded=0;orthogonalLoop=1;jettySize=auto;html=1;entryX=1;entryY=0.5;entryDx=0;entryDy=0;exitX=0;exitY=0.75;exitDx=0;exitDy=0;" edge="1" parent="1" source="bKpORBnBuVByhevC8wJQ-26" target="bKpORBnBuVByhevC8wJQ-27">
          <mxGeometry relative="1" as="geometry">
            <mxPoint x="370" y="410" as="sourcePoint" />
            <mxPoint x="394" y="395" as="targetPoint" />
          </mxGeometry>
        </mxCell>
        <mxCell id="bKpORBnBuVByhevC8wJQ-29" value="SUCCESSFUL" style="edgeLabel;html=1;align=center;verticalAlign=middle;resizable=0;points=[];" vertex="1" connectable="0" parent="bKpORBnBuVByhevC8wJQ-28">
          <mxGeometry x="-0.0564" y="3" relative="1" as="geometry">
            <mxPoint x="-3" y="-16" as="offset" />
          </mxGeometry>
        </mxCell>
      </root>
    </mxGraphModel>
  </diagram>
</mxfile>
